<svg>
    <symbol id="icon-search" width="16" height="16" viewBox="0 0 16 16" fill="none" xmlns="http://www.w3.org/2000/svg">
        <g><path d="M15.8041 14.8636L11.9576 11.0171C12.911 9.85463 13.4857 8.36564 13.4857 6.74277C13.4857 3.0203 10.4653 -0.00012207 6.74286 -0.00012207C3.01714 -0.00012207 0 3.0203 0 6.74277C0 10.4652 3.01714 13.4857 6.74286 13.4857C8.36572 13.4857 9.85143 12.9142 11.0139 11.9608L14.8604 15.804C15.1216 16.0653 15.5429 16.0653 15.8041 15.804C16.0653 15.5461 16.0653 15.1216 15.8041 14.8636ZM6.74286 12.1436C3.76163 12.1436 1.33878 9.72075 1.33878 6.74277C1.33878 3.7648 3.76163 1.33866 6.74286 1.33866C9.72082 1.33866 12.1469 3.7648 12.1469 6.74277C12.1469 9.72075 9.72082 12.1436 6.74286 12.1436Z" fill="#1B1A17"/></g>
    </symbol>

    <symbol id="icon-fav" width="21" height="18" viewBox="0 0 21 18" fill="none" xmlns="http://www.w3.org/2000/svg">
        <g><path d="M19.9686 5.77095C19.6912 3.00614 17.5306 1.00021 14.8266 1.00021C13.0251 1.00021 11.3757 1.87824 10.4475 3.28546C9.5278 1.86003 7.94595 0.999878 6.17336 0.999878C3.4697 0.999878 1.30868 3.0058 1.0317 5.77061C1.00978 5.89274 0.919889 6.53545 1.19321 7.58359C1.58712 9.0954 2.49699 10.4705 3.82378 11.5594L10.4431 17L17.1761 11.5597C18.5029 10.4705 19.4128 9.09573 19.8067 7.58359C20.08 6.53579 19.9902 5.89307 19.9686 5.77095ZM19.0953 7.43202C18.7357 8.81277 17.9022 10.0707 16.6872 11.0676L10.4475 16.1097L4.31489 11.0689C3.09772 10.0701 2.26459 8.81244 1.90466 7.43168C1.64595 6.43981 1.75229 5.8795 1.75265 5.87586L1.75813 5.84243C1.99565 3.42016 3.85229 1.66179 6.17336 1.66179C7.88602 1.66179 9.39369 2.61495 10.1092 4.14893L10.4457 4.87141L10.7822 4.14893C11.4864 2.63844 13.0737 1.66212 14.8269 1.66212C17.1476 1.66212 19.0046 3.42049 19.2469 5.8742C19.2476 5.8795 19.354 6.44014 19.0953 7.43202Z" fill="#1B1A17" stroke="#1B1A17" stroke-width="0.75"/></g>
    </symbol>

    <symbol id="icon-basket" width="18" height="16" viewBox="0 0 18 16" fill="none" xmlns="http://www.w3.org/2000/svg">
        <g><path d="M17.8961 3.05154C17.7931 2.91207 17.6273 2.82586 17.4472 2.81859L6.28162 2.36403C5.96126 2.35079 5.69355 2.58439 5.67985 2.88555C5.66624 3.1866 5.91317 3.44097 6.232 3.4539L16.6416 3.87773L14.5949 9.90915H5.48658L3.84103 1.44676C3.80486 1.26129 3.67004 1.10657 3.4841 1.03767L0.788965 0.0376529C0.491928 -0.0721831 0.156743 0.065616 0.0400874 0.345817C-0.0763672 0.626171 0.0694931 0.942934 0.36637 1.05311L2.76277 1.94226L4.43736 10.5532C4.48784 10.812 4.72671 11.0001 5.0055 11.0001H5.28328L4.64896 12.6641C4.59587 12.8035 4.61775 12.9583 4.7081 13.0794C4.79833 13.2006 4.94507 13.2726 5.10173 13.2726H5.54664C5.27095 13.5624 5.10173 13.944 5.10173 14.3636C5.10173 15.2659 5.87913 16 6.83433 16C7.78953 16 8.56693 15.2659 8.56693 14.3636C8.56693 13.944 8.3977 13.5624 8.12206 13.2726H11.8996C11.6237 13.5624 11.4546 13.944 11.4546 14.3636C11.4546 15.2659 12.2318 16 13.1872 16C14.1426 16 14.9198 15.2659 14.9198 14.3636C14.9198 13.944 14.7506 13.5624 14.475 13.2726H15.016C15.2819 13.2726 15.4973 13.0691 15.4973 12.8181C15.4973 12.567 15.2819 12.3636 15.016 12.3636H5.78652L6.30624 10.9999H15.016C15.2672 10.9999 15.4894 10.8467 15.5659 10.621L17.9723 3.52988C18.0275 3.36804 17.9992 3.19109 17.8961 3.05154ZM6.83437 15.091C6.40968 15.091 6.0643 14.7649 6.0643 14.3638C6.0643 13.9627 6.40968 13.6365 6.83437 13.6365C7.25906 13.6365 7.6044 13.9627 7.6044 14.3638C7.6044 14.7649 7.25906 15.091 6.83437 15.091ZM13.1872 15.091C12.7625 15.091 12.4171 14.7649 12.4171 14.3638C12.4171 13.9627 12.7625 13.6365 13.1872 13.6365C13.6119 13.6365 13.9572 13.9627 13.9572 14.3638C13.9572 14.7649 13.6119 15.091 13.1872 15.091Z" fill="#1B1A17"/></g>
    </symbol>

    <symbol id="icon-arrow-right" width="7" height="12" viewBox="0 0 7 12" fill="none" xmlns="http://www.w3.org/2000/svg">
        <g><path d="M1 11L6 6L1 1" stroke="#1B1A17" stroke-width="0.5"/></g>
    </symbol>

    <symbol id="icon-arrow-left" width="7" height="12" viewBox="0 0 7 12" fill="none" xmlns="http://www.w3.org/2000/svg">
        <g><path d="M6 1L1 6L6 11" stroke="#1B1A17" stroke-width="0.5"/></g>
    </symbol>

    <symbol id="icon-instagram" width="23" height="24" viewBox="0 0 23 24" fill="none" xmlns="http://www.w3.org/2000/svg">
        <g><path d="M6.6571 0.67334C2.98565 0.67334 0 3.63873 0 7.28325V16.8407C0 20.4852 2.98565 23.449 6.6571 23.449H16.3429C20.0143 23.449 23 20.4852 23 16.8407V7.28325C23 3.63873 20.0143 0.67334 16.3429 0.67334H6.6571ZM6.6571 2.6313H16.3429C18.9559 2.6313 21.0292 4.68941 21.0292 7.28325V16.8407C21.0292 19.4345 18.9559 21.491 16.3429 21.491H6.6571C4.04408 21.491 1.97241 19.4345 1.97241 16.8407V7.28325C1.97241 4.68941 4.04408 2.6313 6.6571 2.6313ZM17.6727 4.58924C16.9107 4.58924 16.2934 5.20201 16.2934 5.95832C16.2934 6.71466 16.9107 7.32741 17.6727 7.32741C18.4346 7.32741 19.0519 6.71466 19.0519 5.95832C19.0519 5.20201 18.4346 4.58924 17.6727 4.58924ZM11.5 6.19713C8.24893 6.19713 5.59264 8.83395 5.59264 12.0612C5.59264 15.2884 8.24893 17.9252 11.5 17.9252C14.7511 17.9252 17.409 15.2884 17.409 12.0612C17.409 8.83395 14.7511 6.19713 11.5 6.19713ZM11.5 8.15509C13.6853 8.15509 15.4366 9.89192 15.4366 12.0612C15.4366 14.2304 13.6853 15.9672 11.5 15.9672C9.31472 15.9672 7.56504 14.2304 7.56504 12.0612C7.56504 9.89192 9.31472 8.15509 11.5 8.15509Z" fill="#5C5C50"/></g>
    </symbol>

    <symbol id="icon-facebook" width="12" height="22" viewBox="0 0 12 22" fill="none" xmlns="http://www.w3.org/2000/svg">
        <g><path d="M8.83169 0.571289C5.69558 0.571289 3.54784 2.30036 3.54784 5.47684V8.21442H0V11.9271H3.54784V21.449H7.78878V11.9271H11.3267L11.8581 8.21442H7.78878V5.84364C7.78878 4.76904 8.11969 4.0365 9.8251 4.0365H12V0.717411C11.6238 0.672179 10.3339 0.571289 8.83169 0.571289Z" fill="#5C5C50"/></g>
    </symbol>

    <symbol id="icon-twitter" width="22" height="18" viewBox="0 0 22 18" fill="none" xmlns="http://www.w3.org/2000/svg">
        <g><path d="M22 2.38918C21.191 2.73222 20.321 2.96407 19.4081 3.06852C20.3398 2.5346 21.0552 1.68955 21.3922 0.682817C20.5202 1.17718 19.5546 1.53576 18.526 1.72905C17.7032 0.891167 16.5301 0.367432 15.232 0.367432C12.7393 0.367432 10.7189 2.298 10.7189 4.67956C10.7189 5.01766 10.7584 5.34689 10.8357 5.6623C7.0846 5.4827 3.75901 3.76541 1.53295 1.15673C1.14443 1.79333 0.921886 2.53398 0.921886 3.3244C0.921886 4.82069 1.71835 6.14036 2.92973 6.91397C2.18992 6.89187 1.49391 6.6978 0.885376 6.37458C0.88451 6.39275 0.884504 6.41067 0.884504 6.4287C0.884504 8.51842 2.44044 10.2609 4.50492 10.6573C4.12653 10.7559 3.7279 10.808 3.31624 10.808C3.02512 10.808 2.74286 10.7817 2.46681 10.7311C3.04153 12.4443 4.70801 13.6912 6.68333 13.7261C5.13742 14.8829 3.19166 15.5719 1.07697 15.5719C0.712916 15.5719 0.353368 15.5514 0 15.5118C1.99818 16.7353 4.37022 17.449 6.91929 17.449C15.2207 17.449 19.7597 10.8783 19.7597 5.17934C19.7597 4.99246 19.7552 4.80686 19.747 4.62193C20.6285 4.01345 21.3936 3.25416 21.999 2.38921" fill="#5C5C50"/></g>
    </symbol>


</svg>